<svg xmlns="http://www.w3.org/2000/svg" xmlns:xlink="http://www.w3.org/1999/xlink" version="1.1" x="0px" y="0px" viewBox="0 38 180 120" fill="white" xml:space="preserve"><g><path d="M130.5,91.7c-1.2-7.2-5-13.8-10.7-18.5c-0.6-0.5-1.6-0.6-2.3-0.2l-4.6,2.6c-0.3-0.2-0.7-0.4-1-0.6v-5.3   c0-0.8-0.5-1.6-1.3-1.9c-6.9-2.5-14.5-2.5-21.4,0c-0.8,0.3-1.3,1-1.3,1.9V75c-0.3,0.2-0.7,0.4-1,0.6L82.4,73   c-0.7-0.4-1.6-0.3-2.3,0.2c-5.7,4.7-9.5,11.3-10.7,18.5c-0.1,0.8,0.2,1.7,1,2.1l4.6,2.6c0,0.2,0,0.4,0,0.6s0,0.4,0,0.6l-4.6,2.6   c-0.7,0.4-1.1,1.2-1,2.1c1.2,7.2,5,13.8,10.7,18.5c0.6,0.5,1.6,0.6,2.3,0.2l4.6-2.6c0.3,0.2,0.7,0.4,1,0.6v5.3   c0,0.8,0.5,1.6,1.3,1.9c3.4,1.3,7,1.9,10.7,1.9s7.3-0.6,10.7-1.9c0.8-0.3,1.3-1,1.3-1.9V119c0.3-0.2,0.7-0.4,1-0.6l4.6,2.6   c0.7,0.4,1.6,0.3,2.3-0.2c5.7-4.7,9.5-11.3,10.7-18.5c0.1-0.8-0.2-1.7-1-2.1l-4.6-2.6c0-0.2,0-0.4,0-0.6s0-0.4,0-0.6l4.6-2.6   C130.3,93.4,130.7,92.5,130.5,91.7z M121.9,93.6c-0.7,0.4-1.1,1.1-1,1.9c0,0.5,0.1,1,0.1,1.5s0,1-0.1,1.5c-0.1,0.8,0.3,1.5,1,1.9   l4.4,2.5c-1.2,5.3-4,10.1-8,13.8l-4.4-2.5c-0.7-0.4-1.5-0.4-2.1,0.1c-0.8,0.6-1.7,1.1-2.7,1.6c-0.7,0.3-1.1,1-1.1,1.8v5.1   c-5.2,1.6-10.8,1.6-16,0v-5.1c0-0.8-0.4-1.5-1.1-1.8c-1-0.5-1.9-1-2.7-1.6c-0.6-0.4-1.5-0.5-2.1-0.1l-4.4,2.5   c-4-3.7-6.8-8.5-8-13.8l4.4-2.5c0.7-0.4,1.1-1.1,1-1.9c0-0.5-0.1-1-0.1-1.5s0-1,0.1-1.5c0.1-0.8-0.3-1.5-1-1.9L73.7,91   c1.2-5.3,4-10.1,8-13.8l4.4,2.5c0.7,0.4,1.5,0.4,2.1-0.1c0.8-0.6,1.7-1.1,2.7-1.6c0.7-0.3,1.1-1,1.1-1.8v-5.1   c5.2-1.6,10.8-1.6,16,0v5.1c0,0.8,0.4,1.5,1.1,1.8c1,0.5,1.9,1,2.7,1.6c0.6,0.4,1.5,0.5,2.1,0.1l4.4-2.5c4,3.7,6.8,8.5,8,13.8   L121.9,93.6z"/><path d="M51.5,118.6c-1,0.5-1.4,1.7-0.9,2.7c2.2,4.4,4.9,8.4,8.1,12.1c0.4,0.4,0.9,0.7,1.5,0.7c0.5,0,0.9-0.2,1.3-0.5   c0.8-0.7,0.9-2,0.2-2.8c-3-3.4-5.5-7.2-7.5-11.2C53.7,118.5,52.5,118.1,51.5,118.6z"/><path d="M73.9,133.6c0.4,0.3,0.8,0.4,1.2,0.4c0.6,0,1.2-0.3,1.6-0.8c0.6-0.9,0.4-2.1-0.5-2.8c-6.6-4.7-11.6-11.2-14.5-18.8   c-0.4-1-1.6-1.5-2.6-1.2c-1,0.4-1.5,1.6-1.2,2.6C61.1,121.3,66.6,128.5,73.9,133.6z"/><path d="M100,86c-6.1,0-11,4.9-11,11s4.9,11,11,11s11-4.9,11-11S106.1,86,100,86z M100,104c-3.9,0-7-3.1-7-7s3.1-7,7-7s7,3.1,7,7   S103.9,104,100,104z"/><path d="M163.4,143.5l-12-11c-0.6-0.5-1.4-0.7-2.2-0.4c-0.7,0.3-1.2,1-1.2,1.8v4h-5c-1.1,0-2,0.9-2,2s0.9,2,2,2h7c1.1,0,2-0.9,2-2   v-1.5l7,6.5l-7,6.5V150c0-1.1-0.9-2-2-2h-23c-1.1,0-2,0.9-2,2s0.9,2,2,2h21v4c0,0.8,0.5,1.5,1.2,1.8c0.3,0.1,0.5,0.2,0.8,0.2   c0.5,0,1-0.2,1.4-0.5l12-11c0.4-0.4,0.6-0.9,0.6-1.5S163.8,143.9,163.4,143.5z"/><path d="M50.5,110.4c0.4,0.4,0.9,0.6,1.5,0.6s1.1-0.2,1.5-0.6l11-12c0.5-0.6,0.7-1.4,0.4-2.2c-0.3-0.7-1-1.2-1.8-1.2h-3.9   c0.1-1.9,0.3-3.8,0.7-5.6C63.4,70,80.3,56,100,56c16.9,0,32.3,10.6,38.3,26.4c0.4,1,1.6,1.5,2.6,1.2s1.5-1.6,1.2-2.6   c-6.6-17.3-23.5-29-42-29c-21.6,0-40.2,15.4-44.2,36.6C55.3,91.4,55,94.2,55,97c0,1.1,0.9,2,2,2h1.5l-6.5,7l-6.5-7H47   c1.1,0,2-0.9,2-2c0-1.6,0.1-3.3,0.2-4.8C51.7,66.3,74,46,100,46c19.5,0,37.1,10.9,45.8,28.5c0.5,1,1.7,1.4,2.7,0.9s1.4-1.7,0.9-2.7   C140,53.8,121.1,42,100,42c-13.8,0-26.9,5.1-37.1,14.4c-10.1,9.2-16.4,21.8-17.7,35.3c-0.1,1.1-0.2,2.1-0.2,3.2h-4   c-0.8,0-1.5,0.5-1.8,1.2s-0.2,1.6,0.4,2.2L50.5,110.4z"/><path d="M100,152c13.8,0,26.9-5.1,37.1-14.4c10.1-9.2,16.4-21.8,17.7-35.3c0.1-1.1,0.2-2.1,0.2-3.2h4c0.8,0,1.5-0.5,1.8-1.2   s0.2-1.6-0.4-2.2l-11-12c-0.8-0.8-2.2-0.8-2.9,0l-11,12c-0.5,0.6-0.7,1.4-0.4,2.2c0.3,0.7,1,1.2,1.8,1.2h3.9   c-0.1,1.9-0.3,3.8-0.7,5.6C136.6,124,119.7,138,100,138H42c-3.3,0-6,2.7-6,6v2c0,3.3,2.7,6,6,6H100z M40,146v-2c0-1.1,0.9-2,2-2h58   c21.6,0,40.2-15.4,44.2-36.6c0.5-2.8,0.8-5.6,0.8-8.4c0-1.1-0.9-2-2-2h-1.5l6.5-7l6.5,7H153c-1.1,0-2,0.9-2,2   c0,1.6-0.1,3.3-0.2,4.8C148.3,127.7,126,148,100,148H42C40.9,148,40,147.1,40,146z"/></g></svg>