<svg xmlns="http://www.w3.org/2000/svg" xmlns:xlink="http://www.w3.org/1999/xlink" width="53" zoomAndPan="magnify" viewBox="0 0 39.75 33.749998" height="45" preserveAspectRatio="xMidYMid meet" version="1.0"><defs><clipPath id="2c3cdd85cc"><path d="M 0.0234375 0 L 39.480469 0 L 39.480469 33.5 L 0.0234375 33.5 Z M 0.0234375 0 " clip-rule="nonzero"/></clipPath></defs><g clip-path="url(#2c3cdd85cc)"><path fill="#282b2c" d="M 0.0234375 0 L 39.480469 0 L 39.480469 33.5 L 0.0234375 33.5 Z M 0.0234375 0 " fill-opacity="1" fill-rule="nonzero"/></g><path stroke-linecap="round" transform="matrix(0.744485, 0, 0, 0.744485, 0.02206, -0.000000992647)" fill="none" stroke-linejoin="round" d="M 43.063274 32.814202 C 43.063274 34.057721 42.480867 35.24877 41.447225 36.125005 C 40.408336 37.006487 39.00741 37.499696 37.543521 37.499696 C 36.079632 37.499696 34.673459 37.006487 33.639817 36.125005 C 32.600928 35.24877 32.01852 34.057721 32.01852 32.814202 C 32.01852 31.570684 32.600928 30.374387 33.639817 29.498152 C 34.673459 28.616671 36.079632 28.123461 37.543521 28.123461 C 39.00741 28.123461 40.408336 28.616671 41.447225 29.498152 C 42.480867 30.374387 43.063274 31.570684 43.063274 32.814202 Z M 20.979013 32.814202 C 20.979013 34.057721 20.396605 35.24877 19.362963 36.125005 C 18.329321 37.006487 16.923148 37.499696 15.459259 37.499696 C 13.99537 37.499696 12.589197 37.006487 11.555555 36.125005 C 10.516666 35.24877 9.939506 34.057721 9.939506 32.814202 C 9.939506 31.570684 10.516666 30.374387 11.555555 29.498152 C 12.589197 28.616671 13.99537 28.123461 15.459259 28.123461 C 16.923148 28.123461 18.329321 28.616671 19.362963 29.498152 C 20.396605 30.374387 20.979013 31.570684 20.979013 32.814202 Z M 20.979013 32.814202 " stroke="#ffffff" stroke-width="1.5" stroke-opacity="1" stroke-miterlimit="4"/><path stroke-linecap="round" transform="matrix(0.744485, 0, 0, 0.744485, 0.02206, -0.000000992647)" fill="none" stroke-linejoin="round" d="M 32.01852 32.814202 L 20.979013 32.814202 M 43.063274 32.814202 L 44.747534 32.814202 C 45.235497 32.814202 45.476855 32.814202 45.681485 32.787968 C 46.410806 32.714511 47.092904 32.431177 47.612349 31.990437 C 48.131793 31.544449 48.467596 30.967288 48.556793 30.348153 C 48.583028 30.175004 48.583028 29.970375 48.583028 29.555869 L 48.583028 24.377164 C 48.583028 21.145065 47.071917 18.044139 44.38025 15.756484 C 41.688583 13.474077 38.036731 12.188583 34.227471 12.188583 M 4.414505 7.497842 L 26.498767 7.497842 C 29.62068 7.497842 31.184261 7.497842 32.15494 8.326854 C 33.125619 9.145373 33.125619 10.472842 33.125619 13.122534 L 33.125619 29.062659 M 4.414505 23.904942 L 4.414505 28.123461 C 4.414505 29.87593 4.414505 30.752165 4.860493 31.408029 C 5.149073 31.833029 5.568826 32.189819 6.07253 32.436424 C 6.843826 32.814202 7.872221 32.814202 9.939506 32.814202 M 4.414505 13.122534 L 17.66821 13.122534 M 4.414505 18.752472 L 13.250308 18.752472 " stroke="#ffffff" stroke-width="1.5" stroke-opacity="1" stroke-miterlimit="4"/></svg>