<svg width="122" height="123" viewBox="0 0 122 123" fill="none" xmlns="http://www.w3.org/2000/svg">
<g clip-path="url(#clip0_1_2)">
<path d="M50.51 46L64 37C61.7834 30.511 62.0314 23.4334 64.6967 17.1154C67.362 10.7975 72.2583 5.68077 78.4529 2.74014C84.6475 -0.200494 91.7074 -0.759557 98.2876 1.16946C104.868 3.09847 110.508 7.38075 114.135 13.2005C117.761 19.0202 119.12 25.9706 117.953 32.7276C116.785 39.4846 113.172 45.5759 107.803 49.8411C102.434 54.1062 95.6833 56.2472 88.8373 55.856C81.9913 55.4649 75.5285 52.569 70.68 47.72C70.25 47.28 69.83 46.83 69.43 46.37L55.1 55.93C55.6084 58.0592 55.8635 60.241 55.86 62.43C55.8585 63.8866 55.7448 65.3409 55.52 66.78L71.67 77.34C76.0176 71.9947 82.1972 68.4565 89.0078 67.413C95.8185 66.3695 102.774 67.8951 108.523 71.6935C114.271 75.4918 118.402 81.2916 120.114 87.9659C121.825 94.6402 120.994 101.712 117.782 107.808C114.57 113.904 109.206 118.588 102.734 120.95C96.2613 123.312 89.1417 123.183 82.7585 120.589C76.3753 117.995 71.1845 113.121 68.1945 106.913C65.2046 100.706 64.6292 93.6082 66.58 87L51.64 77.19C48.5819 82.1135 44.0678 85.9637 38.7234 88.2068C33.3791 90.4499 27.4694 90.9748 21.8134 89.7087C16.1574 88.4427 11.0354 85.4484 7.15731 81.141C3.27927 76.8336 0.837321 71.4264 0.169989 65.669C-0.497343 59.9116 0.642994 54.0892 3.43292 49.0089C6.22285 43.9286 10.5242 39.8421 15.7406 37.3158C20.957 34.7896 26.8302 33.9488 32.5459 34.9099C38.2616 35.8711 43.5367 38.5866 47.64 42.68C48.677 43.7146 49.6363 44.8243 50.51 46ZM41.4 74.84C39.6346 76.6133 37.5363 78.0204 35.2256 78.9806C32.9149 79.9407 30.4373 80.435 27.935 80.435C25.4327 80.435 22.9551 79.9407 20.6444 78.9806C18.3337 78.0204 16.2354 76.6133 14.47 74.84L12.8 72.65L14 71.71C16.5 70.23 20.27 70.62 22.73 68.9C22.908 68.6116 23.0651 68.3109 23.2 68C23.43 67.47 23.64 66.9 23.77 66.51C23.2249 65.8351 22.7271 65.1234 22.28 64.38L20.77 62C20.2873 61.3593 19.9898 60.5983 19.91 59.8C19.8957 59.5284 19.9472 59.2574 20.06 59.01C20.1728 58.7646 20.3531 58.5565 20.58 58.41C20.6911 58.3311 20.8122 58.2672 20.94 58.22C20.8361 56.7824 20.8128 55.3402 20.87 53.9C20.9021 53.5615 20.9657 53.2267 21.06 52.9C21.4785 51.5358 22.3867 50.3747 23.61 49.64C24.2753 49.2246 24.9957 48.9048 25.75 48.69C26.23 48.56 25.34 47.02 25.84 46.97C28.24 46.72 32.13 48.91 33.84 50.73C34.7526 51.756 35.2794 53.0678 35.33 54.44L35.23 58.36C35.4263 58.409 35.6051 58.5116 35.7464 58.6564C35.8877 58.8013 35.9859 58.9825 36.03 59.18C36.1133 59.8971 35.9662 60.6221 35.61 61.25L33.89 64.09C33.3036 65.1422 32.5918 66.1193 31.77 67L32 67.33C32.3292 67.8459 32.704 68.3312 33.12 68.78C35.12 70.19 39.93 70.53 41.79 71.56H41.86L43.08 72.56C42.5717 73.3135 42.0173 74.0349 41.42 74.72L41.4 74.84ZM44 46.37C40.284 42.6519 35.3937 40.3374 30.1624 39.8209C24.9311 39.3044 19.6826 40.6178 15.3112 43.5374C10.9399 46.457 7.71613 50.8021 6.18938 55.8322C4.66263 60.8623 4.92734 66.2662 6.93841 71.123C8.94948 75.9798 12.5825 79.989 17.2183 82.4673C21.8541 84.9457 27.2058 85.7399 32.3616 84.7145C37.5173 83.6892 42.158 80.9078 45.4928 76.8443C48.8276 72.7808 50.6502 67.6867 50.65 62.43C50.6542 59.447 50.0689 56.4925 48.9277 53.7364C47.7865 50.9803 46.1118 48.4768 44 46.37ZM107.09 106.62C101.33 113.01 85.59 113.45 79.66 107.14V105.8C79.66 102.36 85.38 102.3 88.43 100.47C90.43 99.26 90.11 98.04 90.1 96.03H86.85C78.53 96.03 84.01 96.69 85.14 87.64C86.83 74.87 99.7 74.86 101.6 87.64C102.82 96.35 108 96 99.89 96H96.64C96.64 98.22 96.28 99.35 98.58 100.6C100.88 101.85 107.08 102.48 107.08 105.6V106.6L107.09 106.62ZM109.42 78.89C105.708 75.171 100.821 72.8538 95.5922 72.3329C90.3633 71.812 85.1156 73.1197 80.7426 76.0333C76.3695 78.9469 73.1416 83.2862 71.6086 88.3123C70.0755 93.3384 70.3319 98.7406 72.3344 103.599C74.3368 108.457 77.9613 112.471 82.5907 114.957C87.2201 117.443 92.5681 118.248 97.7241 117.234C102.88 116.22 107.525 113.45 110.868 109.396C114.212 105.342 116.046 100.255 116.06 95C116.064 92.017 115.479 89.0625 114.338 86.3064C113.196 83.5503 111.522 81.0468 109.41 78.94L109.42 78.89ZM103.95 39.07C102.185 40.8433 100.086 42.2504 97.7756 43.2106C95.4649 44.1707 92.9873 44.665 90.485 44.665C87.9827 44.665 85.5051 44.1707 83.1944 43.2106C80.8837 42.2504 78.7854 40.8433 77.02 39.07L75.35 36.89L76.56 36C79.06 34.52 82.83 34.91 85.29 33.19C85.464 32.9079 85.6177 32.6139 85.75 32.31C85.98 31.78 86.18 31.21 86.32 30.82C85.7707 30.146 85.2695 29.4343 84.82 28.69L83.31 26.29C82.8313 25.647 82.5342 24.8872 82.45 24.09C82.4357 23.8184 82.4872 23.5474 82.6 23.3C82.7103 23.0531 82.8912 22.8443 83.12 22.7C83.2334 22.619 83.3581 22.555 83.49 22.51C83.3812 21.0727 83.3578 19.6301 83.42 18.19C83.4487 17.8518 83.509 17.517 83.6 17.19C84.0192 15.8233 84.9317 14.6613 86.16 13.93C86.8192 13.4913 87.5406 13.1542 88.3 12.93C88.78 12.79 87.89 11.26 88.38 11.21C90.79 10.96 94.67 13.15 96.38 14.97C97.2934 15.9908 97.8174 17.3009 97.86 18.67L97.77 22.6C97.964 22.6516 98.1401 22.7553 98.2794 22.8998C98.4186 23.0444 98.5157 23.2243 98.56 23.42C98.6422 24.1359 98.4989 24.8595 98.15 25.49L96.37 28.4C95.7871 29.4544 95.0749 30.4319 94.25 31.31L94.48 31.64C94.8127 32.156 95.1909 32.6413 95.61 33.09C97.61 34.49 102.43 34.83 104.28 35.87H104.36L105.58 36.87C105.068 37.6205 104.511 38.3385 103.91 39.02L103.95 39.07ZM106.54 11.87C102.824 8.1519 97.9337 5.83739 92.7024 5.32088C87.4711 4.80436 82.2226 6.11781 77.8512 9.0374C73.4799 11.957 70.2561 16.3021 68.7294 21.3322C67.2026 26.3623 67.4673 31.7662 69.4784 36.623C71.4895 41.4798 75.1225 45.489 79.7583 47.9673C84.3941 50.4457 89.7458 51.2399 94.9016 50.2146C100.057 49.1892 104.698 46.4078 108.033 42.3443C111.368 38.2808 113.19 33.1867 113.19 27.93C113.194 24.947 112.609 21.9925 111.468 19.2364C110.326 16.4803 108.652 13.9768 106.54 11.87Z" fill="white"/>
</g>
<defs>
<clipPath id="clip0_1_2">
<rect width="121.28" height="122.88" fill="white"/>
</clipPath>
</defs>
</svg>
